<?xml version="1.0" standalone="no"?>
<!DOCTYPE svg PUBLIC "-//W3C//DTD SVG 20010904//EN"
 "http://www.w3.org/TR/2001/REC-SVG-20010904/DTD/svg10.dtd">
<svg version="1.0" xmlns="http://www.w3.org/2000/svg"
 width="720.000000pt" height="720.000000pt" viewBox="0 0 720.000000 720.000000"
 preserveAspectRatio="xMidYMid meet">
<metadata>
Created by potrace 1.14, written by Peter Selinger 2001-2017
</metadata>
<g transform="translate(0.000000,720.000000) scale(0.100000,-0.100000)"
fill="#000000" stroke="none">
<path d="M3388 6995 c-2 -2 -34 -6 -73 -9 -38 -3 -81 -8 -95 -10 -14 -3 -42
-7 -63 -10 -439 -66 -937 -295 -1272 -586 -111 -97 -335 -331 -406 -425 -174
-232 -338 -550 -405 -785 -20 -72 -63 -242 -68 -270 -3 -19 -10 -62 -16 -95
-23 -138 -32 -412 -17 -585 15 -187 75 -452 143 -630 56 -145 220 -458 246
-468 4 -2 8 -8 8 -14 0 -26 161 -220 285 -343 225 -225 432 -359 735 -478 149
-58 266 -92 425 -122 71 -14 136 -32 146 -40 23 -22 15 -48 -39 -120 -25 -33
-51 -76 -59 -95 -8 -19 -18 -44 -23 -55 -5 -11 -18 -56 -29 -100 -56 -223 26
-602 183 -848 105 -164 264 -318 406 -395 l55 -29 0 -141 -1 -142 31 -1 c37 0
261 0 295 0 l25 1 1 183 c2 312 16 426 75 587 91 245 327 547 569 726 247 183
290 215 302 227 7 7 38 32 68 56 30 23 87 71 125 104 79 69 597 585 692 689
194 212 370 522 475 841 28 86 81 291 92 359 3 18 8 44 11 58 19 90 26 470 12
635 -18 217 -96 520 -193 747 -85 201 -240 456 -364 602 -78 93 -114 131 -209
227 -325 323 -729 555 -1178 675 -99 26 -289 60 -403 72 -76 9 -484 14 -492 7z"/>
</g>
</svg>
