<?xml version="1.0" encoding="UTF-8" standalone="no"?>
<!-- Created with Inkscape (http://www.inkscape.org/) -->

<svg
   width="139.54958mm"
   height="186.86621mm"
   viewBox="0 0 139.54958 186.86621"
   version="1.1"
   id="svg1"
   xml:space="preserve"
   inkscape:version="1.3.2 (091e20e, 2023-11-25, custom)"
   sodipodi:docname="quipz-logo-4-colours-full.svg"
   inkscape:export-filename="quipz-logo-4-colours-blue.png"
   inkscape:export-xdpi="98.287643"
   inkscape:export-ydpi="98.287643"
   xmlns:inkscape="http://www.inkscape.org/namespaces/inkscape"
   xmlns:sodipodi="http://sodipodi.sourceforge.net/DTD/sodipodi-0.dtd"
   xmlns="http://www.w3.org/2000/svg"
   xmlns:svg="http://www.w3.org/2000/svg"><sodipodi:namedview
     id="namedview1"
     pagecolor="#ffffff"
     bordercolor="#111111"
     borderopacity="1"
     inkscape:showpageshadow="0"
     inkscape:pageopacity="0"
     inkscape:pagecheckerboard="1"
     inkscape:deskcolor="#d1d1d1"
     inkscape:document-units="mm"
     inkscape:zoom="1.4142136"
     inkscape:cx="237.58787"
     inkscape:cy="338.35059"
     inkscape:window-width="2560"
     inkscape:window-height="1369"
     inkscape:window-x="-8"
     inkscape:window-y="-8"
     inkscape:window-maximized="1"
     inkscape:current-layer="layer1"
     showgrid="false" /><defs
     id="defs1" /><g
     inkscape:label="Layer 1"
     inkscape:groupmode="layer"
     id="layer1"
     transform="translate(-36.642334,-34.892022)"><path
       style="fill:#cce2f0;fill-opacity:1;stroke:#ffd42a;stroke-width:0.359207"
       d="m 104.53432,202.18063 c -2.92434,-1.59348 -8.323903,-6.52446 -10.591842,-10.33911 -2.174195,-3.65698 -3.130013,-6.69768 -3.134449,-11.52131 -0.0036,-3.89979 0.222095,-4.7716 1.215751,-6.56517 0.700924,-1.26519 1.847337,-2.22516 2.899041,-2.87365 4.511272,-2.78168 7.044269,-5.43201 8.708799,-9.54457 0.80522,-1.98944 2.37568,-5.67535 2.1274,-5.92363 -0.083,-0.0829 -1.11916,0.19629 -2.30269,0.62053 -1.88484,0.67564 -2.55091,2.29661 -8.05697,2.30562 -7.457564,0.0122 -10.745578,-2.03778 -18.520867,-4.80633 -3.60719,-1.28441 -5.800166,-2.45182 -9.299156,-4.95032 -5.156667,-3.68219 -7.92351,-6.13614 -10.846834,-9.6202 -6.260503,-7.46137 -10.002436,-15.1056 -12.004316,-24.52308 -0.99913,-4.70022 -1.351731,-14.16374 -0.726716,-19.504469 1.482354,-12.6667 7.032426,-24.065948 16.533174,-33.957355 5.842434,-6.082671 10.341507,-9.528668 16.434692,-12.587913 9.052407,-4.544999 16.620708,-6.467595 27.208773,-6.911914 15.24046,-0.639552 32.00449,4.055256 42.97492,13.208835 12.27506,10.242148 19.31245,23.220916 21.9743,38.033471 0.88015,4.897808 1.4295,15.334935 0.56334,20.090175 -1.85702,10.19521 -5.27577,18.38864 -11.00259,26.78485 -4.92592,7.22199 -20.41775,22.26572 -32.71754,31.55144 -3.16207,2.38721 -7.64905,5.09172 -9.23618,6.7449 -5.34374,5.56617 -9.79082,14.29443 -10.72817,21.05615 -0.25372,1.83026 -0.29389,4.49647 -0.37505,4.57763 -0.0812,0.0812 -0.70334,-1.13017 -1.09682,-1.34458 z"
       id="path2"
       sodipodi:nodetypes="ssssssssssssssssssssssssss" /><path
       style="fill:#0070b4;fill-opacity:1"
       d="m 102.57323,214.53491 v -7.22332 l -1.25677,-0.60846 c -4.697924,-2.27448 -10.206484,-8.30039 -12.882614,-14.09251 -2.64563,-5.72613 -4.06086,-13.54763 -3.19558,-17.66099 0.82904,-3.94112 1.86602,-6.35584 3.54949,-8.26533 1.24787,-1.41542 1.40503,-2.38366 0.48479,-2.98662 -0.33038,-0.21648 -1.84842,-0.57844 -3.37344,-0.80438 -6.965098,-1.0319 -16.296819,-4.67198 -22.290537,-8.695 -16.825806,-11.2936 -27.015502,-30.75494 -26.966056,-51.50257 0.03434,-14.409795 4.582344,-27.882529 13.486666,-39.952099 2.932194,-3.97451 9.478551,-10.49947 13.727486,-13.68261 12.541122,-9.395344 26.877601,-14.168999 42.553025,-14.168999 7.44047,0 13.50171,0.865887 20.24062,2.891504 11.4793,3.450504 20.99034,9.144335 29.51547,17.669585 11.17469,11.17483 17.7561,24.68994 19.72008,40.495735 0.40856,3.28802 0.40792,12.465294 -0.001,15.478134 -1.6456,12.12226 -6.10896,23.22075 -13.08243,32.53048 -1.94245,2.59321 -14.49093,15.36355 -19.88307,20.23461 -3.77892,3.41373 -8.61745,7.27182 -12.06431,9.61968 -4.65568,3.17128 -7.99563,6.35814 -11.47851,10.95243 -4.14796,5.47159 -6.2445,10.18817 -7.15294,16.09197 -0.28337,1.8416 -0.38718,4.97142 -0.38833,11.70781 l -0.002,2.3151 h -4.63021 -4.63021 z m 3.58248,-16.18972 c 0.23483,-1.89034 0.52136,-3.55722 0.63672,-3.70416 0.11536,-0.14695 0.35839,-0.74343 0.54006,-1.32551 0.18167,-0.58208 0.47983,-1.41552 0.66258,-1.85208 0.18274,-0.43656 0.71085,-1.69425 1.17356,-2.79486 1.02495,-2.43794 3.76331,-6.86703 5.73779,-9.28044 1.97689,-2.41634 4.61129,-4.86143 7.70744,-7.15356 1.41969,-1.05101 3.68625,-2.75042 5.0368,-3.77645 1.35056,-1.02604 2.89095,-2.19631 3.42308,-2.6006 0.53213,-0.40429 2.45957,-2.1167 4.2832,-3.80535 1.82364,-1.68865 4.09325,-3.69273 5.0436,-4.45351 2.74706,-2.19911 12.43209,-11.92953 14.61777,-14.68627 4.09571,-5.16585 7.30503,-10.61533 9.58287,-16.27188 0.52739,-1.30969 1.0743,-2.5879 1.21535,-2.84048 0.32831,-0.58791 1.45708,-4.89664 2.13239,-8.13973 2.81161,-13.50233 1.01297,-27.508265 -5.0631,-39.426089 -3.16998,-6.21771 -7.41895,-11.9568 -12.3676,-16.70491 -3.40388,-3.26595 -8.50664,-7.36901 -9.16445,-7.36901 -0.0826,0 -0.72435,-0.41252 -1.42614,-0.91671 -1.79693,-1.29097 -8.39138,-4.43127 -11.67603,-5.56017 -7.31667,-2.51467 -16.43423,-4.00999 -22.53244,-3.69543 -1.07542,0.0555 -3.20648,0.16138 -4.73569,0.23536 -7.095344,0.34326 -15.676144,2.65047 -22.74054,6.1145 -4.285432,2.10136 -5.975648,3.12726 -9.271779,5.62764 -11.018641,8.35851 -19.112214,19.76413 -22.751227,32.061484 -2.461364,8.317701 -2.924949,19.193625 -1.189423,27.904445 0.653625,3.28063 1.748446,7.32954 2.361968,8.73513 0.191808,0.43943 0.613399,1.45381 0.936868,2.25418 2.781166,6.88148 7.805173,13.92783 13.630356,19.11708 2.788431,2.48401 9.890438,7.45505 11.075958,7.7526 0.3839,0.0964 0.698,0.28134 0.698,0.41109 0,0.12974 0.213338,0.2359 0.474084,0.2359 0.260746,0 1.600667,0.46014 2.9776,1.02255 2.88942,1.18017 7.946661,2.5044 11.761861,3.07983 5.55771,0.83824 12.324544,0.42159 15.452854,-0.95147 0.64096,-0.28133 1.21672,-0.46015 1.27948,-0.39739 0.20134,0.20134 -0.79184,3.9343 -1.54219,5.79643 -0.3996,0.99169 -1.12336,2.46147 -1.60835,3.26618 -1.14495,1.89972 -4.194224,4.78979 -6.041174,5.72574 -3.13575,1.58906 -4.50859,3.61306 -5.03944,7.42969 -0.31734,2.28162 -0.0275,5.70285 0.72003,8.49823 1.08286,4.04947 3.83871,8.40645 7.540785,11.92195 2.362509,2.24344 5.883579,4.78021 5.963139,4.29616 0.031,-0.18871 0.24854,-1.88976 0.48338,-3.78011 z"
       id="path1"
       inkscape:export-filename="quipz-logo-simple.png"
       inkscape:export-xdpi="34.797089"
       inkscape:export-ydpi="34.797089"
       sodipodi:nodetypes="ccssssssssscsssscssssscccccsssssssssssssssssssscsscssscscsssssssssscsss" /><path
       style="fill:#0070b4;fill-opacity:1;stroke-width:1.01657"
       d="m 106.04696,183.95516 v -12.8425 h -5.8866 c -3.746007,0 -5.886586,-0.0983 -5.886586,-0.27038 0,-0.17205 2.140579,-0.27036 5.886586,-0.27036 h 5.8866 v -9.73328 -9.73327 H 88.654762 c -17.213799,0 -17.392171,0.005 -17.392171,0.54073 0,0.29741 -0.120415,0.54074 -0.267579,0.54074 -0.147164,0 -0.267569,-0.23319 -0.267569,-0.51821 0,-0.28501 -0.150511,-0.58918 -0.334466,-0.67592 -0.267568,-0.12618 -0.267568,-0.18925 0,-0.31543 0.265061,-0.12499 0.334466,-7.47419 0.334466,-35.41831 V 79.99833 h -12.17452 c -7.937973,0 -12.174524,-0.09408 -12.174524,-0.270368 0,-0.176284 4.236551,-0.270369 12.174524,-0.270369 h 12.17452 V 64.046576 c 0,-10.093766 0.09233,-15.411017 0.267569,-15.411017 0.156083,0 0.267579,0.90123 0.267579,2.162949 v 2.16295 h 10.435307 c 6.778482,0 10.435307,0.09474 10.435307,0.270369 0,0.175624 -3.656825,0.270368 -10.435307,0.270368 H 71.262591 v 3.785163 3.785162 h 4.816295 4.816296 v 6.48885 6.488848 h 2.274353 c 1.337863,0 2.274364,0.111329 2.274364,0.270369 0,0.159041 -0.936501,0.270368 -2.274364,0.270368 h -2.274353 v 2.43332 2.433318 h 2.274353 c 1.337863,0 2.274364,0.111329 2.274364,0.270369 0,0.161272 -1.025687,0.270368 -2.541932,0.270368 h -2.541933 v -2.703687 -2.703688 h -4.548727 -4.548716 v 37.986865 37.9868 h 17.392171 17.392198 v -3.78516 c 0,-2.34319 0.10193,-3.78516 0.26757,-3.78516 0.16564,0 0.26758,1.44197 0.26758,3.78516 v 3.78516 h 12.57587 12.57589 v -9.59809 -9.59809 h -2.27436 c -1.33787,0 -2.27437,-0.11132 -2.27437,-0.27037 0,-0.15903 0.9365,-0.27035 2.27437,-0.27035 h 2.27436 v -1.21667 -1.21665 h -2.27436 c -1.33787,0 -2.27437,-0.11134 -2.27437,-0.27038 0,-0.16128 1.0257,-0.27036 2.54194,-0.27036 h 2.54194 v 11.35547 11.35549 h 4.28115 4.28114 v -37.9868 -37.986865 h -4.28114 -4.28115 v 2.703688 c 0,1.622213 -0.10704,2.703687 -0.26758,2.703687 -0.16054,0 -0.26757,-1.081474 -0.26757,-2.703687 v -2.703688 h -2.27436 c -1.33787,0 -2.27437,-0.111327 -2.27437,-0.270368 0,-0.15904 0.9365,-0.270369 2.27437,-0.270369 h 2.27436 v -6.624033 -6.624034 h 4.54873 4.54871 v -3.649977 -3.649979 h -17.1246 -17.1246 v 4.190716 c 0,2.613565 -0.10073,4.190716 -0.26758,4.190716 -0.17419,0 -0.26757,-4.01047 -0.26757,-11.490671 0,-7.480202 0.0933,-11.490671 0.26757,-11.490671 0.17153,0 0.26758,2.523441 0.26758,7.029587 v 7.029586 h 17.1246 17.1246 v -1.892581 c 0,-1.081475 0.11469,-1.89258 0.26758,-1.89258 0.17517,0 0.26757,5.182066 0.26757,15.005463 v 15.005464 h 12.44209 c 8.11636,0 12.44211,0.094 12.44211,0.270369 0,0.176369 -4.32575,0.270369 -12.44211,0.270369 h -12.44209 v 39.203508 c 0,25.95541 -0.0904,39.20347 -0.26757,39.20347 -0.16466,0 -0.26758,-1.35183 -0.26758,-3.51478 v -3.51479 h -4.28114 -4.28115 v 7.29995 c 0,4.68639 -0.0958,7.29996 -0.26758,7.29996 -0.17177,0 -0.26757,-2.61357 -0.26757,-7.29996 v -7.29995 h -12.57589 -12.57587 v 9.73327 9.73328 h 9.23123 c 5.97577,0 9.23123,0.0953 9.23123,0.27036 0,0.17502 -3.25546,0.27038 -9.23123,0.27038 h -9.23123 v 12.8425 c 0,8.38144 -0.0929,12.84252 -0.26758,12.84252 -0.17462,0 -0.26757,-4.46108 -0.26757,-12.84252 z M 80.360034,67.831738 v -6.218481 h -4.548727 -4.548716 v 6.218481 6.21848 h 4.548716 4.548727 z m 60.471276,-0.135185 v -6.353664 h -4.28114 -4.28115 v 6.353664 6.353665 h 4.28115 4.28114 z M 79.824887,129.61105 v -1.75739 h 2.809511 c 1.694618,0 2.809501,0.10728 2.809501,0.27036 0,0.16128 -1.025687,0.27038 -2.541932,0.27038 h -2.541933 v 1.21665 1.21667 h 2.541933 c 1.516245,0 2.541932,0.10908 2.541932,0.27035 0,0.16308 -1.114883,0.27037 -2.809501,0.27037 h -2.809511 z m -33.446488,-6.8944 c 0,-0.17444 2.943286,-0.27037 8.294728,-0.27037 5.351443,0 8.294728,0.0959 8.294728,0.27037 0,0.17442 -2.943285,0.27037 -8.294728,0.27037 -5.351442,0 -8.294728,-0.0959 -8.294728,-0.27037 z m 101.409791,0 c 0,-0.1751 3.30005,-0.27037 9.36502,-0.27037 6.06496,0 9.36501,0.0952 9.36501,0.27037 0,0.17509 -3.30005,0.27037 -9.36501,0.27037 -6.06497,0 -9.36502,-0.0952 -9.36502,-0.27037 z M 42.899957,102.16857 c 0,-0.1755 3.567629,-0.27037 10.167739,-0.27037 6.60011,0 10.167738,0.0948 10.167738,0.27037 0,0.17551 -3.567628,0.27036 -10.167738,0.27036 -6.60011,0 -10.167739,-0.0948 -10.167739,-0.27036 z m 104.888233,0 c 0,-0.17595 3.92438,-0.27037 11.23802,-0.27037 7.31363,0 11.23803,0.0944 11.23803,0.27037 0,0.17596 -3.9244,0.27036 -11.23803,0.27036 -7.31364,0 -11.23802,-0.0944 -11.23802,-0.27036 z"
       id="path5" /><g
       id="g4"
       transform="translate(-59.819175,-137.93777)"><path
         style="fill:#ffffff;stroke:none;stroke-width:0.264583px;stroke-linecap:butt;stroke-linejoin:miter;stroke-opacity:1"
         d="m 151.23972,195.4291 h 31.03037 l 0.17783,30.40799 29.29658,-0.0445 V 255.267 l -29.56332,0.40011 0.22228,30.8081 H 149.6393 v -29.29659 l -28.94093,-0.0889 0.0444,-33.51991 28.6742,-0.13337 z"
         id="path4" /><path
         style="fill:#ff0000"
         d="m 146.42214,273.7605 v -12.7 h -12.83229 -12.83229 v -3.57187 -3.57188 h 16.27187 16.27188 v 16.27188 16.27187 h -3.43958 -3.43959 z m 32.80834,-3.57187 v -16.27188 h 16.27187 16.27188 v 3.57188 3.57187 h -12.83229 -12.8323 v 12.7 12.7 h -3.43958 -3.43958 z m -58.47292,-45.77292 v -3.57188 h 12.83229 12.83229 v -12.7 -12.7 h 3.43959 3.43958 v 16.27188 16.27187 h -16.27188 -16.27187 z m 58.47292,-12.7 v -16.27188 h 3.43958 3.43958 v 12.7 12.7 h 12.8323 12.83229 v 3.57188 3.57187 h -16.27188 -16.27187 z"
         id="path3" /></g><text
       xml:space="preserve"
       style="font-style:normal;font-variant:normal;font-weight:normal;font-stretch:normal;font-size:31.0444px;line-height:1.25;font-family:'Palatino Linotype';-inkscape-font-specification:'Palatino Linotype';letter-spacing:0px;fill:#0070b4;fill-opacity:1;stroke-width:0.265;stroke-dasharray:none"
       x="63.988766"
       y="113.69728"
       id="text5"><tspan
         sodipodi:role="line"
         id="tspan5"
         style="font-style:normal;font-variant:normal;font-weight:bold;font-stretch:normal;font-size:31.0444px;font-family:Corbel;-inkscape-font-specification:'Corbel Bold';fill:#0070b4;fill-opacity:1;stroke-width:0.265;stroke-dasharray:none"
         x="63.988766"
         y="113.69728">QuiPZ</tspan></text><rect
       style="fill:#0070b4;stroke:#ffd42a;stroke-width:0.263657;stroke-opacity:0;fill-opacity:1"
       id="rect1"
       width="9.256547"
       height="3.6963401"
       x="102.57812"
       y="217.97546" /></g></svg>
